<?xml version="1.0" standalone="no"?><!DOCTYPE svg PUBLIC "-//W3C//DTD SVG 1.1//EN" "http://www.w3.org/Graphics/SVG/1.1/DTD/svg11.dtd"><svg t="1519136732588" class="icon" style="" viewBox="0 0 1024 1024" version="1.1" xmlns="http://www.w3.org/2000/svg" p-id="2199" xmlns:xlink="http://www.w3.org/1999/xlink" width="64" height="64"><defs><style type="text/css"></style></defs><path d="M142.08 149.12h736v723.2h-736z" fill="#EEF6FF" p-id="2200"></path><path d="M458.88 522.88l-1.92 26.24L357.12 576c-54.4 14.72-64 49.92-82.56 94.72L247.68 736s232.32 113.92 555.52 0.64l-26.88-65.28c-18.56-44.8-28.16-80-82.56-94.72l-101.76-27.52-3.2-26.24" fill="#E8E6FE" p-id="2201"></path><path d="M514.56 800.64c-163.2 0-266.88-49.28-273.28-52.48-5.76-3.2-8.96-10.24-6.4-16.64l26.88-65.28c1.28-3.2 2.56-7.04 4.48-10.24 16.64-40.96 30.72-76.8 87.04-92.16l90.88-24.96 1.28-17.28c0.64-7.04 7.04-12.16 14.08-11.52 7.04 0.64 12.16 7.04 11.52 14.08l-1.92 26.24c-0.64 5.12-4.48 9.6-9.6 11.52L359.68 588.8c-43.52 12.16-53.76 37.76-69.76 76.8-1.28 3.2-2.56 7.04-4.48 10.24l-21.76 53.76c48.64 19.84 252.8 89.6 521.6-0.64l-21.76-53.12c-1.28-3.84-2.56-7.04-4.48-10.24-15.36-39.04-26.24-64.64-69.76-76.8l-101.76-27.52c-5.12-1.28-8.96-5.76-9.6-10.88l-2.56-25.6c-0.64-7.04 3.84-13.44 10.88-14.08 7.04-0.64 13.44 3.84 14.08 10.88l2.56 17.92 93.44 25.6c56.32 15.36 70.4 50.56 87.04 92.16 1.28 3.2 2.56 7.04 4.48 10.24l26.88 65.28c1.28 3.2 1.28 7.04 0 10.24s-3.84 5.76-7.68 7.04c-110.08 37.76-208.64 50.56-292.48 50.56z" fill="#708DB7" p-id="2202"></path><path d="M592.64 552.96c0 71.04-136.32 70.4-136.32-0.64v-44.16l136.32-1.92v46.72z" fill="#FED8C6" p-id="2203"></path><path d="M524.8 619.52c-20.48 0-39.68-5.76-54.4-16-17.28-12.16-26.88-30.08-26.88-50.56v-44.16c0-7.04 5.76-12.8 12.8-12.8l136.32-1.92c3.2 0 7.04 1.28 8.96 3.84 2.56 2.56 3.84 5.76 3.84 8.96v46.72c0 42.88-40.32 65.92-80.64 65.92z m-55.68-98.56v32c0 28.16 28.8 40.96 55.68 40.96 26.24 0 55.04-12.8 55.04-40.32v-33.92l-110.72 1.28z" fill="#708DB7" p-id="2204"></path><path d="M423.68 425.6s-42.24-75.52-40.32-123.52c1.28-47.36 21.76-52.48 28.8-50.56 0 0 32-28.16 101.76-40.32 70.4-12.16 127.36 6.4 127.36 6.4s-17.92 23.04-10.24 41.6c8.32 18.56 39.04 42.88 20.48 112.64L615.68 428.8l-1.92-80.64-0.64-24.96-88.32 2.56-101.76-15.36 21.76 43.52-21.12 71.68z" fill="#D0E5FE" p-id="2205"></path><path d="M615.68 441.6c-1.28 0-2.56 0-3.2-0.64-5.12-1.28-8.96-6.4-9.6-12.16l-1.92-92.8-76.16 2.56h-2.56l-77.44-11.52 10.88 21.76c1.28 2.56 1.92 6.4 0.64 8.96L435.84 428.8c-1.28 5.12-5.76 8.32-10.88 8.96-5.12 0.64-10.24-1.92-12.8-6.4-1.92-3.2-43.52-79.36-42.24-129.92 1.28-35.84 12.8-51.2 22.4-58.24 5.12-3.2 10.24-5.12 15.36-5.12 11.52-8.32 44.8-29.44 103.68-39.68 72.32-12.16 131.2 5.76 133.12 6.4 3.84 1.28 7.04 4.48 8.32 8.32 1.28 3.84 0.64 8.32-1.92 11.52-4.48 5.76-12.16 19.84-8.32 28.8 1.28 2.56 3.2 5.76 5.76 10.24 11.52 18.56 31.36 49.28 15.36 110.72-0.64 1.28-0.64 2.56-1.28 3.84L626.56 435.2c-2.56 3.84-6.4 6.4-10.88 6.4zM408.96 264.32c-2.56 0.64-11.52 8.32-12.8 38.4-0.64 26.24 13.44 62.72 24.32 87.68l10.24-34.56-19.2-39.04c-1.92-4.48-1.92-9.6 1.28-13.44 2.56-3.84 7.68-5.76 12.16-5.12L525.44 313.6l87.68-3.2c3.84 0 7.04 1.28 8.96 3.2 2.56 2.56 3.84 5.76 3.84 8.96l1.28 64 12.16-19.2c12.8-49.28-1.92-72.32-12.8-88.96-3.2-4.48-5.76-8.96-7.68-13.44-5.76-13.44-2.56-28.16 1.92-38.4-21.12-4.48-60.8-9.6-105.6-1.92-65.28 10.88-95.36 37.12-95.36 37.12-2.56 2.56-7.04 3.84-10.88 2.56z" fill="#708DB7" p-id="2206"></path><path d="M395.52 362.88s-16.64 19.84-17.28 41.6c-0.64 21.76 8.96 45.44 35.84 47.36 0 0 9.6 43.52 42.88 71.04 33.92 27.52 71.68 26.24 71.68 26.24S614.4 534.4 633.6 453.12c0 0 35.2-4.48 38.4-33.28s-19.84-48-19.84-48l-27.52 42.88-3.84-65.92 5.12-38.4-101.12 5.76-106.24-8.32 9.6 40.96-5.12 68.48-27.52-54.4z" fill="#FED8C6" p-id="2207"></path><path d="M527.36 561.92c-7.04 0-44.8-1.28-78.72-28.8-27.52-22.4-40.32-54.4-44.8-69.76-24.32-6.4-39.04-28.8-38.4-59.52 0.64-26.24 19.84-48.64 20.48-49.92 2.56-3.2 7.04-5.12 11.52-4.48 4.48 0.64 7.68 3.2 9.6 7.04l7.04 14.08 1.92-21.12-9.6-39.04c-0.64-3.84 0-8.32 2.56-11.52s6.4-4.48 10.88-4.48l105.6 8.32 99.84-5.12c3.84 0 7.68 1.28 10.24 3.84 2.56 2.56 3.84 6.4 3.2 10.24l-5.12 37.76 1.28 24.96 5.76-9.6c1.92-3.2 5.12-5.12 8.96-5.76 3.84-0.64 7.04 0.64 10.24 2.56 1.28 1.28 28.16 24.32 24.32 59.52-3.2 25.6-24.32 37.76-40.96 42.24-23.68 81.28-109.44 96.64-112.64 97.28h-1.92c-0.64 1.28-0.64 1.28-1.28 1.28z m-133.12-172.8c-1.92 5.12-3.84 10.24-3.84 16 0 9.6 1.28 32.64 23.68 34.56 5.76 0.64 10.24 4.48 11.52 10.24 0 0.64 8.96 39.68 38.4 64 26.88 21.76 56.96 23.04 62.08 23.04 9.6-1.92 77.44-17.92 93.44-85.76 1.28-5.12 5.76-8.96 10.88-9.6 1.28 0 25.6-3.84 27.52-21.76 1.28-9.6-1.92-18.56-5.76-24.96L634.24 422.4c-3.2 4.48-8.96 7.04-14.08 5.12-5.12-1.28-8.96-6.4-9.6-11.52L608 349.44v-2.56l3.2-23.04-85.12 4.48h-1.92l-88.96-6.4 5.76 23.68c0 1.28 0.64 2.56 0 3.84l-5.12 68.48c-0.64 5.76-4.48 10.24-10.24 11.52-5.76 1.28-11.52-1.92-14.08-7.04l-17.28-33.28z" fill="#708DB7" p-id="2208"></path><path d="M876.8 217.6c-7.04 0-12.8-5.76-12.8-12.8v-44.8h-38.4c-7.04 0-12.8-5.76-12.8-12.8s5.76-12.8 12.8-12.8h51.2c7.04 0 12.8 5.76 12.8 12.8v57.6c0 7.04-5.76 12.8-12.8 12.8z" fill="#708DB7" p-id="2209"></path><path d="M140.8 217.6c-7.04 0-12.8-5.76-12.8-12.8v-57.6c0-7.04 5.76-12.8 12.8-12.8h51.2c7.04 0 12.8 5.76 12.8 12.8s-5.76 12.8-12.8 12.8h-38.4v44.8c0 7.04-5.76 12.8-12.8 12.8z" fill="#708DB7" p-id="2210"></path><path d="M876.8 883.2h-51.2c-7.04 0-12.8-5.76-12.8-12.8s5.76-12.8 12.8-12.8h38.4v-44.8c0-7.04 5.76-12.8 12.8-12.8s12.8 5.76 12.8 12.8v57.6c0 7.04-5.76 12.8-12.8 12.8z" fill="#708DB7" p-id="2211"></path><path d="M192 883.2h-51.2c-7.04 0-12.8-5.76-12.8-12.8v-57.6c0-7.04 5.76-12.8 12.8-12.8s12.8 5.76 12.8 12.8v44.8h38.4c7.04 0 12.8 5.76 12.8 12.8s-5.76 12.8-12.8 12.8z" fill="#708DB7" p-id="2212"></path></svg>